<svg width="30" height="30" viewBox="0 0 30 30" fill="none" xmlns="http://www.w3.org/2000/svg">
<path d="M18.9727 2.03907C16.7344 1.4004 14.3965 2.69532 13.7578 4.9336L13.4238 6.10548C13.207 6.86719 12.8145 7.57032 12.2812 8.15626L9.27539 11.4609C8.75391 12.0352 8.79492 12.9258 9.36914 13.4473C9.94336 13.9688 10.834 13.9277 11.3555 13.3535L14.3613 10.0488C15.1875 9.14063 15.791 8.05665 16.125 6.87891L16.459 5.70704C16.6699 4.9629 17.4492 4.5293 18.1992 4.74024C18.9492 4.95118 19.377 5.73048 19.166 6.48048L18.832 7.65235C18.498 8.81837 17.9707 9.91993 17.2734 10.9043C16.9688 11.332 16.9336 11.8945 17.1738 12.3633C17.4141 12.832 17.8945 13.125 18.4219 13.125H26.25C26.7656 13.125 27.1875 13.5469 27.1875 14.0625C27.1875 14.4609 26.9355 14.8066 26.5781 14.9414C26.1445 15.1055 25.8164 15.4688 25.7051 15.9199C25.5938 16.3711 25.7109 16.8457 26.0156 17.1914C26.1621 17.3555 26.25 17.5723 26.25 17.8125C26.25 18.2695 25.9219 18.6504 25.4883 18.7324C25.0078 18.8262 24.6035 19.1602 24.4336 19.6231C24.2637 20.0859 24.3398 20.6016 24.6445 20.9883C24.7676 21.1465 24.8438 21.3457 24.8438 21.5684C24.8438 21.9609 24.5977 22.3066 24.2461 22.4414C23.5723 22.7051 23.209 23.4316 23.4023 24.1289C23.4258 24.2051 23.4375 24.293 23.4375 24.3809C23.4375 24.8965 23.0156 25.3184 22.5 25.3184H16.7871C16.0488 25.3184 15.3223 25.1016 14.707 24.6914L11.0918 22.2832C10.4473 21.8496 9.57422 22.0254 9.14062 22.6758C8.70703 23.3262 8.88281 24.1934 9.5332 24.627L13.1484 27.0352C14.2266 27.7559 15.4922 28.1367 16.7871 28.1367H22.5C24.5332 28.1367 26.1855 26.5195 26.25 24.5039C27.1055 23.8184 27.6562 22.7637 27.6562 21.5742C27.6562 21.3106 27.627 21.0586 27.5801 20.8125C28.4824 20.127 29.0625 19.043 29.0625 17.8242C29.0625 17.4434 29.0039 17.0742 28.8984 16.7285C29.5781 16.0371 30 15.0996 30 14.0625C30 11.9941 28.3242 10.3125 26.25 10.3125H20.8418C21.1172 9.70313 21.3516 9.07032 21.5332 8.42579L21.8672 7.25391C22.5059 5.01563 21.2109 2.67774 18.9727 2.03907ZM1.875 11.25C0.837891 11.25 0 12.0879 0 13.125V26.25C0 27.2871 0.837891 28.125 1.875 28.125H5.625C6.66211 28.125 7.5 27.2871 7.5 26.25V13.125C7.5 12.0879 6.66211 11.25 5.625 11.25H1.875Z" fill="black"/>
</svg>
