<svg width="12" height="26" viewBox="0 0 12 26" fill="none" xmlns="http://www.w3.org/2000/svg">
<path d="M11.1962 10.6759L11.8063 11.9146C12.0646 12.4391 12.0646 13.2872 11.8063 13.8061L6.46714 24.6531C6.20884 25.1776 5.79116 25.1776 5.53561 24.6531L0.193726 13.8061C-0.0645752 13.2816 -0.0645752 12.4335 0.193726 11.9146L0.803756 10.6759C1.0648 10.1458 1.49073 10.157 1.74628 10.6982L4.90085 17.4218V1.38565C4.90085 0.64354 5.19487 0.0465088 5.56034 0.0465088H6.43966C6.80513 0.0465088 7.09915 0.64354 7.09915 1.38565V17.4218L10.2537 10.6982C10.5093 10.1514 10.9352 10.1402 11.1962 10.6759Z" fill="#C73B3B"/>
</svg>
