<svg width="15" height="19" viewBox="0 0 15 19" fill="none" xmlns="http://www.w3.org/2000/svg">
<path d="M12.3488 8.16745C12.443 7.72128 12.4958 7.23341 12.4958 6.72469C12.4958 4.51469 11.5081 2.72166 10.2907 2.72166C9.83815 2.72166 9.41549 2.97185 9.06635 3.39718C8.43007 1.39566 7.24251 0.0529785 5.88038 0.0529785C3.84981 0.0529785 2.20514 3.03857 2.20514 6.72469C2.20514 6.83728 2.20744 6.94986 2.20974 7.06245C0.923403 7.8839 0 10.1106 0 12.7292C0 16.0442 1.48158 18.7338 3.30771 18.7338H11.7608C13.3847 18.7338 14.7009 16.3445 14.7009 13.3964C14.7009 10.8153 13.6903 8.65949 12.3488 8.16745ZM9.03648 10.7277H7.53423V15.3979C7.53423 15.7649 7.36885 16.0651 7.16671 16.0651H6.06414C5.862 16.0651 5.69661 15.7649 5.69661 15.3979V10.7277H4.19436C3.86589 10.7277 3.7028 10.0105 3.9348 9.58936L6.35586 5.19437C6.49828 4.93584 6.73257 4.93584 6.87499 5.19437L9.29605 9.58936C9.52805 10.0105 9.36266 10.7277 9.03648 10.7277Z" fill="black"/>
</svg>
