<svg width="30" height="35" viewBox="0 0 30 35" fill="none" xmlns="http://www.w3.org/2000/svg">
<path d="M15 35C17.3652 35 19.2837 33.0415 19.2837 30.625H10.7163C10.7163 33.0415 12.6348 35 15 35ZM29.4234 24.7659C28.1296 23.3468 25.7089 21.2119 25.7089 14.2188C25.7089 8.90723 22.0607 4.65527 17.1415 3.61211V2.1875C17.1415 0.97959 16.1826 0 15 0C13.8174 0 12.8585 0.97959 12.8585 2.1875V3.61211C7.93931 4.65527 4.2911 8.90723 4.2911 14.2188C4.2911 21.2119 1.87035 23.3468 0.576607 24.7659C0.174823 25.2068 -0.00330191 25.7339 4.62982e-05 26.25C0.00741235 27.3711 0.86924 28.4375 2.14959 28.4375H27.8504C29.1308 28.4375 29.9933 27.3711 30 26.25C30.0033 25.7339 29.8252 25.2062 29.4234 24.7659Z" fill="white"/>
</svg>
