<svg width="12" height="26" viewBox="0 0 12 26" fill="none" xmlns="http://www.w3.org/2000/svg">
<path d="M0.80394 14.4171L0.19377 13.1784C-0.06459 12.6539 -0.06459 11.8058 0.19377 11.2869L5.53413 0.43988C5.79249 -0.084615 6.21026 -0.084615 6.46587 0.43988L11.8062 11.2813C12.0646 11.8058 12.0646 12.6539 11.8062 13.1728L11.1961 14.4115C10.935 14.9416 10.5089 14.9305 10.2533 14.3892L7.10078 7.67122V23.7074C7.10078 24.4495 6.80669 25.0465 6.44114 25.0465H5.56161C5.19606 25.0465 4.90197 24.4495 4.90197 23.7074V7.67122L1.74668 14.3948C1.49107 14.9416 1.06505 14.9528 0.80394 14.4171Z" fill="black"/>
</svg>
