<svg width="30" height="25" viewBox="0 0 30 25" fill="none" xmlns="http://www.w3.org/2000/svg">
<path d="M29.6084 8.66446L22.1083 15.3043C21.3177 16.0043 20 15.4854 20 14.4524V10.9386C12.4701 10.9859 9.29344 12.6531 11.418 19.3054C11.6515 20.0365 10.7489 20.6026 10.1156 20.1516C8.08604 18.7063 6.25 15.9418 6.25 13.1513C6.25 6.12315 12.3749 4.72848 20 4.68883V1.17247C20 0.138585 21.3186 -0.3787 22.1083 0.320519L29.6084 6.96056C30.1303 7.42262 30.1307 8.20201 29.6084 8.66446ZM20 18.5121V21.875H3.33333V6.25001H5.98521C6.06937 6.24996 6.15266 6.23396 6.23006 6.20297C6.30746 6.17198 6.37738 6.12665 6.43563 6.06969C7.21443 5.30953 8.11464 4.70787 9.0926 4.23004C9.67229 3.94679 9.4575 3.12501 8.8038 3.12501H2.5C1.11927 3.12501 0 4.17433 0 5.46876V22.6562C0 23.9507 1.11927 25 2.5 25H20.8333C22.2141 25 23.3333 23.9507 23.3333 22.6562V18.32C23.3333 17.9153 22.9064 17.6332 22.4994 17.7682C21.9288 17.9574 21.3178 18.0139 20.7187 17.9331C20.3401 17.882 20 18.1535 20 18.5121Z" fill="black"/>
</svg>
