<svg width="25" height="25" viewBox="0 0 25 25" fill="none" xmlns="http://www.w3.org/2000/svg">
<path d="M12.5 0C5.5998 0 0 5.5998 0 12.5C0 19.4002 5.5998 25 12.5 25C19.4002 25 25 19.4002 25 12.5C25 5.5998 19.4002 0 12.5 0ZM17.5756 18.3921C17.3639 18.3921 17.2329 18.3266 17.0363 18.2107C13.8911 16.3155 10.2319 16.2349 6.61794 16.9758C6.42137 17.0262 6.16431 17.1069 6.01815 17.1069C5.52923 17.1069 5.22177 16.7188 5.22177 16.3105C5.22177 15.7913 5.52923 15.5444 5.90726 15.4637C10.0353 14.5514 14.254 14.6321 17.8528 16.7843C18.1603 16.9808 18.3417 17.1573 18.3417 17.6159C18.3417 18.0746 17.9839 18.3921 17.5756 18.3921ZM18.9315 15.0857C18.6694 15.0857 18.4929 14.9698 18.3115 14.874C15.1613 13.0091 10.4637 12.2581 6.28528 13.3921C6.04335 13.4577 5.9123 13.5232 5.68548 13.5232C5.14617 13.5232 4.70766 13.0847 4.70766 12.5454C4.70766 12.006 4.96976 11.6482 5.48891 11.502C6.89012 11.1089 8.32157 10.8165 10.4183 10.8165C13.6895 10.8165 16.8498 11.628 19.3397 13.1099C19.748 13.3518 19.9093 13.6643 19.9093 14.1028C19.9042 14.6472 19.4808 15.0857 18.9315 15.0857ZM20.494 11.245C20.2319 11.245 20.0706 11.1794 19.8438 11.0484C16.255 8.90625 9.83871 8.39214 5.68548 9.55141C5.50403 9.60181 5.27722 9.68246 5.03528 9.68246C4.36996 9.68246 3.86089 9.16331 3.86089 8.49294C3.86089 7.80746 4.28427 7.41936 4.7379 7.28831C6.5121 6.76915 8.49798 6.52218 10.6603 6.52218C14.3397 6.52218 18.1956 7.28831 21.0131 8.93145C21.4062 9.15827 21.6633 9.47077 21.6633 10.0706C21.6633 10.756 21.1089 11.245 20.494 11.245Z" fill="#08BEF9"/>
</svg>
