<svg width="25" height="25" viewBox="0 0 25 25" fill="none" xmlns="http://www.w3.org/2000/svg">
<path d="M10.8482 10.1639C10.5232 10.3692 10.2442 10.633 10.0271 10.9402C9.80995 11.2475 9.65899 11.5921 9.58282 11.9545C9.42898 12.6863 9.58908 13.4459 10.0279 14.0662C10.4667 14.6865 11.1483 15.1166 11.9227 15.262C12.6972 15.4074 13.501 15.2561 14.1574 14.8414C14.8137 14.4267 15.2689 13.7826 15.4228 13.0508C15.5766 12.319 15.4165 11.5593 14.9777 10.9391C14.5389 10.3188 13.8573 9.88864 13.0828 9.74326C12.3084 9.59789 11.5046 9.74918 10.8482 10.1639ZM18.7891 6.55684C18.4989 6.28262 18.1473 6.06641 17.7623 5.92402C16.7522 5.54961 14.548 5.56543 13.125 5.58125C12.8962 5.58125 12.6842 5.58652 12.5 5.58652C12.3158 5.58652 12.0982 5.58652 11.8638 5.58125C10.4408 5.56543 8.24777 5.54434 7.23772 5.92402C6.85268 6.06641 6.5067 6.28262 6.21094 6.55684C5.91518 6.83105 5.69196 7.16328 5.54129 7.52715C5.14509 8.48164 5.16741 10.5699 5.17857 11.9146C5.17857 12.1309 5.18415 12.3313 5.18415 12.5C5.18415 12.6687 5.18415 12.8691 5.17857 13.0854C5.16741 14.4301 5.14509 16.5184 5.54129 17.4729C5.69196 17.8367 5.92076 18.1637 6.21094 18.4432C6.50112 18.7227 6.85268 18.9336 7.23772 19.076C8.24777 19.4504 10.452 19.4346 11.875 19.4188C12.1038 19.4188 12.3158 19.4135 12.5 19.4135C12.6842 19.4135 12.9018 19.4135 13.1362 19.4188C14.5592 19.4346 16.7522 19.4557 17.7623 19.076C18.1473 18.9336 18.4933 18.7174 18.7891 18.4432C19.0848 18.1689 19.308 17.8367 19.4587 17.4729C19.8605 16.5236 19.8382 14.4459 19.8214 13.0959C19.8214 12.8744 19.8158 12.6687 19.8158 12.4947C19.8158 12.3207 19.8158 12.1203 19.8214 11.8936C19.8382 10.5488 19.8605 8.47109 19.4587 7.5166C19.308 7.15273 19.0792 6.82578 18.7891 6.54629V6.55684ZM15.0446 8.90352C16.054 9.54128 16.7539 10.5318 16.9904 11.6573C17.227 12.7827 16.9807 13.9508 16.3058 14.9047C15.9716 15.377 15.5423 15.7825 15.0423 16.098C14.5423 16.4135 13.9815 16.6328 13.3918 16.7435C12.2008 16.967 10.9647 16.7342 9.95536 16.0965C8.94599 15.4594 8.24578 14.4695 8.00874 13.3446C7.7717 12.2196 8.01727 11.0518 8.69141 10.0979C9.36555 9.1441 10.413 8.48239 11.6035 8.2584C12.7939 8.0344 14.0297 8.26645 15.0391 8.90352H15.0446ZM16.6741 8.83496C16.5011 8.72422 16.3616 8.56602 16.2779 8.38144C16.1942 8.19687 16.1775 7.99648 16.2165 7.79609C16.2556 7.5957 16.3616 7.42168 16.5067 7.2793C16.6518 7.13691 16.8471 7.04199 17.0536 7.00508C17.26 6.96816 17.4777 6.98398 17.673 7.06309C17.8683 7.14219 18.0357 7.26875 18.1529 7.43223C18.2701 7.5957 18.3315 7.79082 18.3315 7.99121C18.3315 8.12305 18.3036 8.25488 18.2533 8.37617C18.2031 8.49746 18.1194 8.6082 18.0246 8.70312C17.9297 8.79805 17.8069 8.87187 17.6786 8.92461C17.5502 8.97734 17.4107 9.00371 17.2712 9.00371C17.0592 9.00371 16.8527 8.9457 16.6797 8.83496H16.6741ZM25 4.0625C25 2.20098 23.3984 0.6875 21.4286 0.6875H3.57143C1.60156 0.6875 0 2.20098 0 4.0625V20.9375C0 22.799 1.60156 24.3125 3.57143 24.3125H21.4286C23.3984 24.3125 25 22.799 25 20.9375V4.0625ZM19.9219 19.5137C18.8783 20.4998 17.6116 20.8109 16.183 20.8795C14.7098 20.9586 10.2902 20.9586 8.81696 20.8795C7.38839 20.8109 6.12165 20.4998 5.07812 19.5137C4.0346 18.5275 3.70536 17.3305 3.63839 15.9805C3.55469 14.5883 3.55469 10.4117 3.63839 9.01953C3.71094 7.66953 4.0346 6.47246 5.07812 5.48633C6.12165 4.5002 7.39397 4.18906 8.81696 4.12578C10.2902 4.04668 14.7098 4.04668 16.183 4.12578C17.6116 4.19434 18.8783 4.5002 19.9219 5.48633C20.9654 6.47246 21.2946 7.66953 21.3616 9.01953C21.4453 10.4064 21.4453 14.5777 21.3616 15.9752C21.2891 17.3252 20.9654 18.5223 19.9219 19.5084V19.5137Z" fill="#08BEF9"/>
</svg>
