<svg width="13" height="13" viewBox="0 0 13 13" fill="none" xmlns="http://www.w3.org/2000/svg">
<path d="M1.30919 11.6328C1.30919 12.0919 1.63349 12.4629 2.03488 12.4629H10.7432C11.1446 12.4629 11.4689 12.0919 11.4689 11.6328V4.16155H1.30919V11.6328ZM4.93766 6.13312C4.93766 5.96191 5.06012 5.82182 5.2098 5.82182H7.56831C7.71798 5.82182 7.84044 5.96191 7.84044 6.13312V6.34066C7.84044 6.51187 7.71798 6.65196 7.56831 6.65196H5.2098C5.06012 6.65196 4.93766 6.51187 4.93766 6.34066V6.13312ZM11.4689 0.841003H1.30919C0.907791 0.841003 0.583496 1.21197 0.583496 1.67114V2.91634C0.583496 3.14463 0.746777 3.33141 0.946343 3.33141H11.8318C12.0313 3.33141 12.1946 3.14463 12.1946 2.91634V1.67114C12.1946 1.21197 11.8703 0.841003 11.4689 0.841003Z" fill="white"/>
</svg>
