<svg width="35" height="28" viewBox="0 0 35 28" fill="none" xmlns="http://www.w3.org/2000/svg">
<path d="M17.5 0.102539C7.83266 0.102539 0 6.33685 0 14.0314C0 21.726 7.83266 27.9604 17.5 27.9604C27.1673 27.9604 35 21.726 35 14.0314C35 6.33685 27.1673 0.102539 17.5 0.102539ZM17.5 5.49437C20.9294 5.49437 23.7097 7.70727 23.7097 10.4369C23.7097 13.1665 20.9294 15.3794 17.5 15.3794C14.0706 15.3794 11.2903 13.1665 11.2903 10.4369C11.2903 7.70727 14.0706 5.49437 17.5 5.49437ZM17.5 24.8151C13.3579 24.8151 9.64617 23.3211 7.1623 20.9847C8.48891 18.9964 11.0857 17.626 14.1129 17.626C14.2823 17.626 14.4516 17.6485 14.6139 17.6878C15.5312 17.9237 16.4909 18.0753 17.5 18.0753C18.5091 18.0753 19.4758 17.9237 20.3861 17.6878C20.5484 17.6485 20.7177 17.626 20.8871 17.626C23.9143 17.626 26.5111 18.9964 27.8377 20.9847C25.3538 23.3211 21.6421 24.8151 17.5 24.8151Z" fill="white"/>
</svg>
