<svg width="25" height="17" viewBox="0 0 25 17" fill="none" xmlns="http://www.w3.org/2000/svg">
<path d="M24.4776 2.65992C24.1901 1.61292 23.3429 0.788331 22.2673 0.508495C20.3177 0 12.5 0 12.5 0C12.5 0 4.68232 0 2.73266 0.508495C1.65706 0.788375 0.80992 1.61292 0.522399 2.65992C0 4.55768 0 8.51718 0 8.51718C0 8.51718 0 12.4767 0.522399 14.3744C0.80992 15.4214 1.65706 16.2117 2.73266 16.4915C4.68232 17 12.5 17 12.5 17C12.5 17 20.3177 17 22.2673 16.4915C23.3429 16.2117 24.1901 15.4214 24.4776 14.3744C25 12.4767 25 8.51718 25 8.51718C25 8.51718 25 4.55768 24.4776 2.65992ZM9.94316 12.1121V4.92225L16.4772 8.51727L9.94316 12.1121Z" fill="#08BEF9"/>
</svg>
