<svg width="50" height="50" viewBox="0 0 50 50" fill="none" xmlns="http://www.w3.org/2000/svg">
<path d="M30.3571 19.6429V19.6479H46.4286C48.3979 19.6479 49.995 21.2449 49.995 23.2143V26.7857C49.995 28.7551 48.3979 30.3521 46.4286 30.3521H30.3571V30.3571H30.3521V46.4286C30.3521 48.3979 28.7551 49.995 26.7857 49.995H23.2143C21.2449 49.995 19.6479 48.3979 19.6479 46.4286V30.3571H19.6429V30.3521H3.57143C1.60209 30.3521 0.005 28.7551 0.005 26.7857V23.2143C0.005 21.2449 1.60209 19.6479 3.57143 19.6479H19.6429V19.6429H19.6479V3.57143C19.6479 1.60209 21.2449 0.005 23.2143 0.005H26.7857C28.7551 0.005 30.3521 1.60209 30.3521 3.57143V19.6429H30.3571Z" fill="black" stroke="black" stroke-width="0.01"/>
</svg>
