<svg width="30" height="28" viewBox="0 0 30 28" fill="none" xmlns="http://www.w3.org/2000/svg">
<path d="M15 27.9604C17.3652 27.9604 19.2837 26.4015 19.2837 24.4781H10.7163C10.7163 26.4015 12.6348 27.9604 15 27.9604ZM29.4234 19.8147C28.1296 18.6851 25.7089 16.9859 25.7089 11.4198C25.7089 7.19214 22.0607 3.80785 17.1415 2.97755V1.84365C17.1415 0.882231 16.1826 0.102539 15 0.102539C13.8174 0.102539 12.8585 0.882231 12.8585 1.84365V2.97755C7.93931 3.80785 4.2911 7.19214 4.2911 11.4198C4.2911 16.9859 1.87035 18.6851 0.576607 19.8147C0.174823 20.1656 -0.00330191 20.5851 4.62982e-05 20.9959C0.00741235 21.8882 0.86924 22.737 2.14959 22.737H27.8504C29.1308 22.737 29.9933 21.8882 30 20.9959C30.0033 20.5851 29.8252 20.1651 29.4234 19.8147Z" fill="white"/>
</svg>
